<?xml version="1.0" encoding="utf-8"?>
<!-- Generator: Adobe Illustrator 16.0.0, SVG Export Plug-In . SVG Version: 6.00 Build 0)  -->
<!DOCTYPE svg PUBLIC "-//W3C//DTD SVG 1.1//EN" "http://www.w3.org/Graphics/SVG/1.1/DTD/svg11.dtd">
<svg version="1.1" id="Layer_1" fill='white' xmlns="http://www.w3.org/2000/svg" xmlns:xlink="http://www.w3.org/1999/xlink" x="0px" y="0px"
	 width="245.116px" height="16.805px" viewBox="-2 -0.5 244.116 17.200" enable-background="new 0 0 244.116 16.805"
	 xml:space="preserve">
<g>
	<path d="M-1.846,13.333V0.325h7.269v1.38H0v4.359h4.553v1.362H0v5.906H-1.846z"/>
	<path d="M12.779,12.12c-1.037,0.955-2.036,1.433-2.997,1.433c-0.791,0-1.447-0.248-1.969-0.743s-0.782-1.121-0.782-1.876
		c0-1.043,0.438-1.844,1.314-2.404S10.479,7.69,12.12,7.69h0.404V6.539c0-1.107-0.577-1.661-1.731-1.661
		c-0.896,0-1.875,0.281-2.936,0.844V4.289c1.166-0.475,2.265-0.712,3.296-0.712c1.061,0,1.843,0.242,2.347,0.725
		s0.756,1.229,0.756,2.237v4.324c0,0.99,0.305,1.485,0.914,1.485c0.076,0,0.188-0.012,0.334-0.035l0.123,0.958
		c-0.393,0.188-0.826,0.281-1.301,0.281C13.518,13.553,13.002,13.075,12.779,12.12z M12.524,11.18V8.71l-0.554-0.018
		c-0.961,0-1.736,0.179-2.325,0.536s-0.883,0.832-0.883,1.424c0,0.416,0.146,0.768,0.439,1.055s0.65,0.431,1.072,0.431
		C10.995,12.138,11.745,11.818,12.524,11.18z"/>
	<path d="M17.798,13.333V3.788h1.731v1.793c0.914-1.336,2.033-2.004,3.357-2.004c0.832,0,1.493,0.262,1.982,0.787
		s0.734,1.229,0.734,2.114v6.855h-1.731V7.04c0-0.709-0.104-1.214-0.312-1.516s-0.552-0.453-1.033-0.453
		c-1.061,0-2.06,0.694-2.997,2.083v6.179H17.798z"/>
	<path d="M33.223,13.333c-0.533,0.146-0.996,0.22-1.389,0.22c-0.879,0-1.564-0.252-2.057-0.756s-0.738-1.204-0.738-2.101V5.089
		h-1.195V3.788h1.195V2.057l1.731-0.167v1.898h2.496v1.301h-2.496v5.291c0,1.248,0.539,1.872,1.617,1.872
		c0.229,0,0.507-0.038,0.835-0.114V13.333z"/>
	<path d="M40.623,12.12c-1.037,0.955-2.036,1.433-2.997,1.433c-0.791,0-1.447-0.248-1.969-0.743s-0.782-1.121-0.782-1.876
		c0-1.043,0.438-1.844,1.314-2.404s2.134-0.839,3.775-0.839h0.404V6.539c0-1.107-0.577-1.661-1.731-1.661
		c-0.896,0-1.875,0.281-2.936,0.844V4.289c1.166-0.475,2.265-0.712,3.296-0.712c1.061,0,1.843,0.242,2.347,0.725
		S42.1,5.531,42.1,6.539v4.324c0,0.99,0.305,1.485,0.914,1.485c0.076,0,0.188-0.012,0.334-0.035l0.123,0.958
		c-0.393,0.188-0.826,0.281-1.301,0.281C41.361,13.553,40.846,13.075,40.623,12.12z M40.368,11.18V8.71l-0.554-0.018
		c-0.961,0-1.736,0.179-2.325,0.536s-0.883,0.832-0.883,1.424c0,0.416,0.146,0.768,0.439,1.055s0.65,0.431,1.072,0.431
		C38.839,12.138,39.589,11.818,40.368,11.18z"/>
	<path d="M45.29,12.999v-1.591c1.131,0.563,2.115,0.844,2.953,0.844c0.498,0,0.911-0.135,1.239-0.404s0.492-0.606,0.492-1.011
		c0-0.592-0.46-1.081-1.38-1.468l-1.011-0.431c-1.494-0.621-2.241-1.515-2.241-2.681c0-0.832,0.294-1.487,0.883-1.964
		s1.396-0.716,2.421-0.716c0.533,0,1.192,0.073,1.978,0.22l0.36,0.07v1.441c-0.967-0.287-1.737-0.431-2.312-0.431
		c-0.504,0-0.907,0.11-1.208,0.33s-0.453,0.514-0.453,0.883c0,0.521,0.422,0.961,1.266,1.318l0.835,0.352
		c0.943,0.398,1.611,0.819,2.004,1.261s0.589,0.995,0.589,1.657c0,0.838-0.331,1.526-0.993,2.065s-1.509,0.809-2.54,0.809
		C47.382,13.553,46.421,13.368,45.29,12.999z"/>
	<path d="M55.365,16.805l1.552-3.475l-3.69-9.542h1.875l2.731,7.183l2.914-7.183h1.638l-5.212,13.017H55.365z"/>
	<path d="M75.182,13.658c-1.846,0-3.321-0.62-4.425-1.859S69.1,8.903,69.1,6.829s0.552-3.731,1.657-4.97S73.336,0,75.182,0
		s3.321,0.62,4.425,1.859s1.657,2.896,1.657,4.97s-0.552,3.731-1.657,4.97S77.027,13.658,75.182,13.658z M75.182,12.278
		c1.295,0,2.306-0.482,3.032-1.446s1.09-2.304,1.09-4.021c0-1.705-0.363-3.037-1.09-3.995S76.477,1.38,75.182,1.38
		s-2.306,0.479-3.032,1.437s-1.09,2.29-1.09,3.995c0,1.717,0.363,3.057,1.09,4.021S73.887,12.278,75.182,12.278z"/>
	<path d="M83.9,13.333V3.788h1.731v1.793c0.686-1.336,1.682-2.004,2.988-2.004c0.176,0,0.36,0.015,0.554,0.044v1.625
		c-0.299-0.1-0.563-0.149-0.791-0.149c-1.096,0-2.013,0.65-2.751,1.949v6.286H83.9z"/>
	<path d="M91.266,2.057V0.325h1.731v1.731H91.266z M91.266,13.333V3.788h1.731v9.545H91.266z"/>
	<path d="M103.465,13.025c-1.16,0.352-2.153,0.527-2.979,0.527c-1.412,0-2.561-0.467-3.445-1.4
		c-0.885-0.934-1.327-2.145-1.327-3.631c0-1.446,0.391-2.631,1.173-3.557c0.782-0.925,1.783-1.387,3.001-1.387
		c1.154,0,2.046,0.412,2.676,1.235s0.945,1.991,0.945,3.502L103.5,8.842h-6.021c0.252,2.262,1.362,3.393,3.331,3.393
		c0.721,0,1.605-0.196,2.654-0.589V13.025z M97.559,7.541h4.21c0-1.775-0.662-2.663-1.986-2.663
		C98.452,4.878,97.711,5.766,97.559,7.541z"/>
	<path d="M106.497,13.333V3.788h1.731v1.793c0.914-1.336,2.033-2.004,3.357-2.004c0.832,0,1.493,0.262,1.982,0.787
		s0.734,1.229,0.734,2.114v6.855h-1.731V7.04c0-0.709-0.104-1.214-0.312-1.516s-0.552-0.453-1.033-0.453
		c-1.061,0-2.06,0.694-2.997,2.083v6.179H106.497z"/>
	<path d="M121.922,13.333c-0.533,0.146-0.996,0.22-1.389,0.22c-0.879,0-1.564-0.252-2.057-0.756s-0.738-1.204-0.738-2.101V5.089
		h-1.195V3.788h1.195V2.057l1.731-0.167v1.898h2.496v1.301h-2.496v5.291c0,1.248,0.539,1.872,1.617,1.872
		c0.229,0,0.507-0.038,0.835-0.114V13.333z"/>
	<path d="M131.396,13.025c-1.16,0.352-2.153,0.527-2.979,0.527c-1.412,0-2.561-0.467-3.445-1.4
		c-0.885-0.934-1.327-2.145-1.327-3.631c0-1.446,0.391-2.631,1.173-3.557c0.782-0.925,1.783-1.387,3.001-1.387
		c1.154,0,2.046,0.412,2.676,1.235s0.945,1.991,0.945,3.502l-0.009,0.527h-6.021c0.252,2.262,1.362,3.393,3.331,3.393
		c0.721,0,1.605-0.196,2.654-0.589V13.025z M125.49,7.541h4.21c0-1.775-0.662-2.663-1.986-2.663
		C126.384,4.878,125.643,5.766,125.49,7.541z"/>
	<path d="M141.425,13.025c-1.16,0.352-2.153,0.527-2.979,0.527c-1.412,0-2.561-0.467-3.445-1.4
		c-0.885-0.934-1.327-2.145-1.327-3.631c0-1.446,0.391-2.631,1.173-3.557c0.782-0.925,1.783-1.387,3.001-1.387
		c1.154,0,2.046,0.412,2.676,1.235s0.945,1.991,0.945,3.502l-0.009,0.527h-6.021c0.252,2.262,1.362,3.393,3.331,3.393
		c0.721,0,1.605-0.196,2.654-0.589V13.025z M135.519,7.541h4.21c0-1.775-0.662-2.663-1.986-2.663
		C136.412,4.878,135.671,5.766,135.519,7.541z"/>
	<path d="M144.457,13.333V3.788h1.731v1.793c0.686-1.336,1.682-2.004,2.988-2.004c0.176,0,0.36,0.015,0.554,0.044v1.625
		c-0.299-0.1-0.563-0.149-0.791-0.149c-1.096,0-2.013,0.65-2.751,1.949v6.286H144.457z"/>
	<path d="M151.822,2.057V0.325h1.731v1.731H151.822z M151.822,13.333V3.788h1.731v9.545H151.822z"/>
	<path d="M157.025,13.333V3.788h1.731v1.793c0.914-1.336,2.033-2.004,3.357-2.004c0.832,0,1.493,0.262,1.982,0.787
		s0.734,1.229,0.734,2.114v6.855h-1.731V7.04c0-0.709-0.104-1.214-0.312-1.516s-0.552-0.453-1.033-0.453
		c-1.061,0-2.06,0.694-2.997,2.083v6.179H157.025z"/>
	<path d="M168.231,16.506l0.203-1.494c1.003,0.469,1.995,0.703,2.975,0.703c1.948,0,2.922-1.034,2.922-3.103v-1.503
		c-0.299,0.633-0.726,1.125-1.28,1.477c-0.555,0.352-1.172,0.527-1.853,0.527c-1.156,0-2.071-0.415-2.746-1.244
		c-0.675-0.829-1.012-1.953-1.012-3.371c0-1.453,0.384-2.637,1.153-3.551s1.763-1.371,2.983-1.371c1.067,0,1.986,0.434,2.754,1.301
		v-1.09h1.731v6.943c0,1.494-0.078,2.6-0.233,3.318s-0.447,1.305-0.875,1.762c-0.756,0.803-1.937,1.204-3.542,1.204
		C170.312,17.016,169.251,16.846,168.231,16.506z M174.331,10.021V6.063c-0.763-0.79-1.594-1.185-2.492-1.185
		c-0.798,0-1.423,0.319-1.875,0.957c-0.452,0.638-0.678,1.521-0.678,2.651c0,2.072,0.737,3.107,2.21,3.107
		C172.5,11.593,173.445,11.069,174.331,10.021z"/>
	<path d="M185.063,13.333V0.325h1.846v11.628h5.854v1.38H185.063z"/>
	<path d="M201.709,13.025c-1.16,0.352-2.153,0.527-2.979,0.527c-1.412,0-2.561-0.467-3.445-1.4
		c-0.885-0.934-1.327-2.145-1.327-3.631c0-1.446,0.391-2.631,1.173-3.557c0.782-0.925,1.783-1.387,3.001-1.387
		c1.154,0,2.046,0.412,2.676,1.235s0.945,1.991,0.945,3.502l-0.009,0.527h-6.021c0.252,2.262,1.362,3.393,3.331,3.393
		c0.721,0,1.605-0.196,2.654-0.589V13.025z M195.803,7.541h4.21c0-1.775-0.662-2.663-1.986-2.663
		C196.696,4.878,195.955,5.766,195.803,7.541z"/>
	<path d="M209.663,12.12c-1.037,0.955-2.036,1.433-2.997,1.433c-0.791,0-1.447-0.248-1.969-0.743s-0.782-1.121-0.782-1.876
		c0-1.043,0.438-1.844,1.314-2.404s2.134-0.839,3.775-0.839h0.404V6.539c0-1.107-0.577-1.661-1.731-1.661
		c-0.896,0-1.875,0.281-2.936,0.844V4.289c1.166-0.475,2.265-0.712,3.296-0.712c1.061,0,1.843,0.242,2.347,0.725
		s0.756,1.229,0.756,2.237v4.324c0,0.99,0.305,1.485,0.914,1.485c0.076,0,0.188-0.012,0.334-0.035l0.123,0.958
		c-0.393,0.188-0.826,0.281-1.301,0.281C210.401,13.553,209.886,13.075,209.663,12.12z M209.408,11.18V8.71l-0.554-0.018
		c-0.961,0-1.736,0.179-2.325,0.536s-0.883,0.832-0.883,1.424c0,0.416,0.146,0.768,0.439,1.055s0.65,0.431,1.072,0.431
		C207.879,12.138,208.629,11.818,209.408,11.18z"/>
	<path d="M214.717,16.506l0.203-1.494c1.003,0.469,1.995,0.703,2.975,0.703c1.948,0,2.922-1.034,2.922-3.103v-1.503
		c-0.299,0.633-0.726,1.125-1.28,1.477c-0.555,0.352-1.172,0.527-1.853,0.527c-1.156,0-2.071-0.415-2.746-1.244
		c-0.675-0.829-1.012-1.953-1.012-3.371c0-1.453,0.384-2.637,1.153-3.551s1.763-1.371,2.983-1.371c1.067,0,1.986,0.434,2.754,1.301
		v-1.09h1.731v6.943c0,1.494-0.078,2.6-0.233,3.318s-0.447,1.305-0.875,1.762c-0.756,0.803-1.937,1.204-3.542,1.204
		C216.797,17.016,215.736,16.846,214.717,16.506z M220.816,10.021V6.063c-0.763-0.79-1.594-1.185-2.492-1.185
		c-0.798,0-1.423,0.319-1.875,0.957c-0.452,0.638-0.678,1.521-0.678,2.651c0,2.072,0.737,3.107,2.21,3.107
		C218.985,11.593,219.93,11.069,220.816,10.021z"/>
	<path d="M231.873,13.333V11.54c-0.92,1.342-2.036,2.013-3.349,2.013c-0.832,0-1.494-0.262-1.986-0.787s-0.738-1.232-0.738-2.123
		V3.788h1.731v6.293c0,0.715,0.104,1.223,0.312,1.525s0.555,0.453,1.042,0.453c1.055,0,2.051-0.694,2.988-2.083V3.788h1.731v9.545
		H231.873z"/>
	<path d="M244.072,13.025c-1.16,0.352-2.153,0.527-2.979,0.527c-1.412,0-2.561-0.467-3.445-1.4
		c-0.885-0.934-1.327-2.145-1.327-3.631c0-1.446,0.391-2.631,1.173-3.557c0.782-0.925,1.783-1.387,3.001-1.387
		c1.154,0,2.046,0.412,2.676,1.235s0.945,1.991,0.945,3.502l-0.009,0.527h-6.021c0.252,2.262,1.362,3.393,3.331,3.393
		c0.721,0,1.605-0.196,2.654-0.589V13.025z M238.166,7.541h4.21c0-1.775-0.662-2.663-1.986-2.663
		C239.06,4.878,238.318,5.766,238.166,7.541z"/>
</g>
</svg>
