<?xml version="1.0" encoding="utf-8"?>
<!-- Generator: Adobe Illustrator 16.0.0, SVG Export Plug-In . SVG Version: 6.00 Build 0)  -->
<!DOCTYPE svg PUBLIC "-//W3C//DTD SVG 1.1//EN" "http://www.w3.org/Graphics/SVG/1.1/DTD/svg11.dtd">
<svg version="1.1" id="Layer_1" fill='white' xmlns="http://www.w3.org/2000/svg" xmlns:xlink="http://www.w3.org/1999/xlink" x="0px" y="0px"
	 width="265.101px" height="42.336px" viewBox="4.32 16.221 265.101 42.336" enable-background="new 4.32 16.221 265.101 42.336"
	 xml:space="preserve">
<g>
	<path d="M4.32,23.997c0-1.056,0.204-2.052,0.612-2.988c0.407-0.936,0.972-1.764,1.692-2.483c0.72-0.721,1.548-1.284,2.484-1.692
		c0.936-0.407,1.956-0.612,3.06-0.612H29.16c1.055,0,2.063,0.205,3.024,0.612c0.959,0.408,1.8,0.972,2.52,1.692
		c0.72,0.72,1.284,1.548,1.692,2.483c0.407,0.937,0.612,1.933,0.612,2.988v26.784c0,1.056-0.205,2.052-0.612,2.987
		c-0.408,0.937-0.961,1.765-1.656,2.484c-0.697,0.72-1.524,1.285-2.484,1.692c-0.96,0.407-1.992,0.611-3.096,0.611H12.168
		c-1.104,0-2.136-0.204-3.096-0.611c-0.96-0.407-1.789-0.973-2.484-1.692c-0.696-0.72-1.249-1.548-1.656-2.484
		c-0.409-0.936-0.612-1.932-0.612-2.987V23.997z M9.216,49.99c0,1.104,0.396,2.052,1.188,2.844s1.739,1.188,2.844,1.188H28.08
		c1.152,0,2.111-0.396,2.88-1.188c0.767-0.792,1.152-1.739,1.152-2.844v-25.2c0-1.104-0.385-2.052-1.152-2.844
		c-0.769-0.792-1.728-1.188-2.88-1.188H13.248c-1.105,0-2.052,0.396-2.844,1.188s-1.188,1.74-1.188,2.844V49.99z"/>
	<path d="M45.287,27.526h4.176l0.36,3.455c0.527-1.008,1.284-1.836,2.268-2.483c0.983-0.648,2.099-0.972,3.348-0.972h4.104v4.247
		h-5.04c-1.296,0-2.388,0.445-3.276,1.332c-0.889,0.89-1.332,1.98-1.332,3.276v21.456h-4.608V27.526z"/>
	<path d="M64.942,16.941h4.536v5.616h-4.536V16.941z M64.942,27.526h4.608v30.312h-4.608V27.526z"/>
	<path d="M91.508,23.997c0-1.056,0.204-2.052,0.612-2.988c0.407-0.936,0.972-1.764,1.692-2.483c0.72-0.721,1.548-1.284,2.484-1.692
		c0.936-0.407,1.956-0.612,3.06-0.612h14.4c1.104,0,2.135,0.205,3.096,0.612c0.959,0.408,1.788,0.972,2.484,1.692
		c0.695,0.72,1.248,1.548,1.656,2.483c0.407,0.937,0.612,1.933,0.612,2.988v5.399h-4.752v-4.607c0-1.104-0.396-2.052-1.188-2.844
		s-1.74-1.188-2.844-1.188h-12.384c-1.105,0-2.052,0.396-2.844,1.188s-1.188,1.74-1.188,2.844v25.2c0,1.104,0.396,2.052,1.188,2.844
		s1.739,1.188,2.844,1.188h12.384c1.104,0,2.052-0.396,2.844-1.188s1.188-1.739,1.188-2.844v-7.128h-9.36v-3.96h14.112v11.88
		c0,1.056-0.205,2.052-0.612,2.987c-0.409,0.937-0.961,1.765-1.656,2.484c-0.696,0.72-1.524,1.285-2.484,1.692
		c-0.961,0.407-1.993,0.611-3.096,0.611h-14.4c-1.104,0-2.124-0.204-3.06-0.611s-1.764-0.973-2.484-1.692s-1.285-1.548-1.692-2.484
		c-0.409-0.936-0.612-1.932-0.612-2.987V23.997z"/>
	<path d="M154.508,57.837h-4.176l-0.288-2.664c-0.529,0.961-1.309,1.764-2.34,2.412c-1.033,0.648-2.173,0.972-3.42,0.972h-7.776
		c-0.961,0-1.872-0.18-2.736-0.54c-0.863-0.359-1.608-0.863-2.231-1.512c-0.625-0.648-1.116-1.379-1.477-2.196
		c-0.359-0.815-0.54-1.703-0.54-2.664v-3.888c0-1.247,0.384-2.352,1.152-3.312c0.768-0.96,1.729-1.608,2.88-1.944l14.4-3.888
		c0.576-0.191,1.044-0.528,1.403-1.009c0.36-0.479,0.54-1.008,0.54-1.584v-1.655c0-0.911-0.313-1.703-0.936-2.376
		c-0.624-0.672-1.416-1.009-2.376-1.009h-8.856c-0.96,0-1.776,0.337-2.447,1.009c-0.673,0.673-1.009,1.465-1.009,2.376v3.023h-4.248
		v-3.672c0-1.919,0.672-3.552,2.017-4.896c1.343-1.344,2.999-2.017,4.968-2.017h10.44c0.959,0,1.872,0.181,2.735,0.54
		c0.864,0.36,1.62,0.853,2.269,1.477c0.647,0.624,1.151,1.356,1.512,2.195c0.36,0.841,0.54,1.74,0.54,2.7V57.837z M134.06,51.07
		c0,0.912,0.312,1.704,0.937,2.376c0.623,0.672,1.415,1.008,2.376,1.008h8.208c1.199,0,2.207-0.407,3.023-1.225
		c0.816-0.815,1.225-1.823,1.225-3.023v-8.856c-0.337,0.337-0.817,0.601-1.44,0.792l-12.384,3.528
		c-0.624,0.144-1.104,0.468-1.44,0.972s-0.504,1.069-0.504,1.692V51.07z"/>
	<path d="M162.428,27.526h4.176l0.288,2.735c0.527-1.008,1.296-1.836,2.304-2.483c1.009-0.648,2.136-0.973,3.385-0.973h6.12
		c1.199,0,2.291,0.288,3.275,0.864c0.983,0.576,1.788,1.345,2.412,2.304c0.623-0.959,1.44-1.728,2.448-2.304
		s2.111-0.864,3.312-0.864h7.272c2.016,0,3.683,0.673,5.004,2.017c1.319,1.344,1.979,2.977,1.979,4.896v24.12h-4.607v-23.4
		c0-0.911-0.313-1.703-0.937-2.376c-0.624-0.671-1.416-1.008-2.376-1.008h-7.487c-0.961,0-1.753,0.337-2.376,1.008
		c-0.625,0.673-0.961,1.465-1.009,2.376v23.4h-4.464v-23.4c0-0.911-0.323-1.703-0.972-2.376c-0.648-0.671-1.452-1.008-2.412-1.008
		h-6.192c-1.296,0-2.376,0.444-3.239,1.332c-0.864,0.889-1.296,1.956-1.296,3.204v22.248h-4.608V27.526z"/>
	<path d="M212.324,33.717c0-0.96,0.18-1.859,0.54-2.7c0.36-0.839,0.864-1.571,1.512-2.195c0.648-0.624,1.392-1.116,2.232-1.477
		c0.839-0.359,1.739-0.54,2.7-0.54h11.664c2.016,0,3.683,0.673,5.004,2.017c1.319,1.344,1.979,2.977,1.979,4.896v9.36h-21.168v7.92
		c0,0.912,0.324,1.704,0.973,2.376c0.647,0.673,1.451,1.008,2.411,1.008h10.152c0.96,0,1.775-0.335,2.448-1.008
		c0.672-0.672,1.008-1.464,1.008-2.376v-3.528h4.176v4.176c0,0.961-0.18,1.849-0.54,2.664c-0.359,0.817-0.853,1.548-1.476,2.196
		c-0.625,0.648-1.356,1.152-2.196,1.512c-0.84,0.36-1.764,0.54-2.771,0.54h-11.664c-0.961,0-1.861-0.18-2.7-0.54
		c-0.841-0.359-1.584-0.863-2.232-1.512c-0.647-0.648-1.151-1.379-1.512-2.196c-0.36-0.815-0.54-1.703-0.54-2.664V33.717z
		 M233.78,39.765v-5.399c0-0.911-0.336-1.703-1.008-2.376c-0.673-0.672-1.488-1.009-2.448-1.009h-10.152
		c-0.96,0-1.764,0.337-2.411,1.009c-0.648,0.673-0.973,1.465-0.973,2.376v5.399H233.78z"/>
	<path d="M244.796,48.117h4.248v2.88c0,0.912,0.335,1.691,1.008,2.34c0.672,0.648,1.487,0.972,2.448,0.972h9.071
		c0.96,0,1.765-0.335,2.412-1.008c0.648-0.672,0.973-1.464,0.973-2.376v-2.016c0-0.623-0.181-1.176-0.54-1.656
		c-0.36-0.479-0.854-0.815-1.477-1.008l-14.111-4.032c-1.201-0.335-2.173-1.031-2.916-2.088c-0.745-1.056-1.116-2.207-1.116-3.456
		v-2.952c0-0.96,0.18-1.859,0.54-2.7c0.359-0.839,0.863-1.571,1.512-2.195s1.392-1.116,2.232-1.477
		c0.839-0.359,1.739-0.54,2.699-0.54h10.656c1.968,0,3.624,0.673,4.968,2.017s2.017,2.977,2.017,4.896v3.528h-4.248v-2.88
		c0-0.911-0.337-1.692-1.008-2.34c-0.673-0.648-1.489-0.973-2.448-0.973h-9.072c-0.961,0-1.753,0.324-2.376,0.973
		c-0.624,0.647-0.936,1.429-0.936,2.34v2.016c0,0.576,0.167,1.116,0.504,1.62c0.335,0.504,0.815,0.853,1.439,1.044l14.112,4.032
		c1.248,0.336,2.232,1.021,2.952,2.052c0.72,1.033,1.08,2.196,1.08,3.492v3.023c0,1.921-0.673,3.553-2.017,4.896
		c-1.344,1.343-3,2.016-4.968,2.016H251.78c-0.96,0-1.86-0.18-2.699-0.54c-0.841-0.359-1.584-0.852-2.232-1.476
		c-0.648-0.623-1.152-1.355-1.512-2.196c-0.36-0.839-0.54-1.739-0.54-2.7V48.117z"/>
</g>
</svg>
